{"title":"Blue Jasmine 2013 DVDSCR XVID AC3 HQ Hive-CM8","uid":9436205,"size":1437388800,"categoryP":"video","categoryS":"movies","magnet":"?xt=urn:btih:09066244e64e89d663addd07a8638d6c99ec04cd&amp;dn=Blue+Jasmine+2013+DVDSCR+XVID+AC3+HQ+Hive-CM8&amp;tr=udp%3A%2F%2Ftracker.openbittorrent.com%3A80&amp;tr=udp%3A%2F%2Fopen.demonii.com%3A1337&amp;tr=udp%3A%2F%2Ftracker.coppersurfer.tk%3A6969&amp;tr=udp%3A%2F%2Fexodus.desync.com%3A6969","seeders":3,"leechers":0,"uploader":"HeroMaster","files":-1,"time":1388907998,"description":":::::::: CM8 PRESENTS ::::::::\n\n\n:::: Blue Jasmine 2013 DVDScr XVID AC3 HQ Hive-CM8 ::::\n\n\n::Information::\n\n\nSource: DVDScr DVD-R Big thanks DRs\n\nEncode:\n\nDVD had great quality just colours were reddish, tried cpl versions to balance the levels, finally got it done\nfixed rgb,blackbase,whitebase,contrast,brightness and added sharpness and denoise\n\ngot very nice\n\nenjoy\ntill next scr\n\nVideo: 720x304 @bitrate 1500 2pass\nAudio: English AC3 5.1 @448\nSample: yes included\n\nIMDb: &lt;a href=&quot; http://www.imdb.com/title/tt2334873/&quot; rel=&quot;nofollow&quot; target=&quot;_NEW&quot;&gt; http://www.imdb.com/title/tt2334873/&lt;/a&gt;\n\nGeneral\nComplete name: Blue.Jasmine.2013.DVDScr.XVID.AC3.HQ.Hive-CM8.avi\nFormat: AVI\nFormat/Info: Audio Video Interleave\nFile size: 1.34 GiB\nDuration: 1h 38mn\nOverall bit rate: 1 947 Kbps\nWriting application: Nandub v1.0rc2\nWriting library: Nandub build 1853/release\n\nVideo\nID: 0\nFormat: MPEG-4 Visual\nFormat profile: Advanced Simple@L5\nFormat settings, BVOP: 2\nFormat settings, QPel: Yes\nFormat settings, GMC: No warppoints\nFormat settings, Matrix: Default (H.263)\nMuxing mode: Packed bitstream\nCodec ID: XVID\nCodec ID/Hint: XviD\nDuration: 1h 38mn\nBit rate: 1 490 Kbps\nWidth: 720 pixels\nHeight: 304 pixels\nDisplay aspect ratio: 2.35:1\nFrame rate: 23.976 fps\nColor space: YUV\nChroma subsampling: 4:2:0\nBit depth: 8 bits\nScan type: Progressive\nCompression mode: Lossy\nBits/(Pixel*Frame): 0.284\nStream size: 1.02 GiB (77%)\nWriting library: XviD 1.2.1 (UTC 2008-12-04)\n\nAudio\nID: 1\nFormat: AC-3\nFormat/Info: Audio Coding 3\nMode extension: CM (complete main)\nFormat settings, Endianness: Big\nCodec ID: 2000\nDuration: 1h 38mn\nBit rate mode: Constant\nBit rate: 448 Kbps\nChannel(s): 6 channels\nChannel positions: Front: L C R, Side: L R, LFE\nSampling rate: 48.0 KHz\nBit depth: 16 bits\nCompression mode: Lossy\nStream size: 315 MiB (23%)\nAlignment: Split accross interleaves\nInterleave, duration: 42 ms (1.00 video frame)\nInterleave, preload duration: 500 ms\n\n\n::Cast::\n\n\nDirector: Woody Allen\nWriter: Woody Allen\nActors: Cate Blanchett, Joy Carlin, Richard Conti, Glen Caspillo\n\n\n::Plot::\n\n\nJasmine French used to be on the top of the heap as a New York socialite, but now is returning to her estranged sister in San Francisco utterly ruined. As Jasmine struggles with her haunting memories of a privileged past bearing dark realities she ignored, she tries to recover in her present.\n\n\n::Greetz and Respect::\n\n\nALL CREDIT Goes to CM8 for Encoding and ABG for Distribution.\n\n\n::Poster::\n\n &lt;a href=&quot;\nhttp://i.imgur.com/yIghqw7.jpg&quot; rel=&quot;nofollow&quot; target=&quot;_NEW&quot;&gt;\nhttp://i.imgur.com/yIghqw7.jpg&lt;/a&gt;\n\n\n::Screenshots::\n\n &lt;a href=&quot;\nhttp://i.imgur.com/jga9voM.jpg&quot; rel=&quot;nofollow&quot; target=&quot;_NEW&quot;&gt;\nhttp://i.imgur.com/jga9voM.jpg&lt;/a&gt;\n\n\nSEED AND ENJOY!","torrent":{"xt":"urn:btih:09066244e64e89d663addd07a8638d6c99ec04cd","amp;dn":"Blue+Jasmine+2013+DVDSCR+XVID+AC3+HQ+Hive-CM8","amp;tr":["udp%3A%2F%2Ftracker.openbittorrent.com%3A80","udp%3A%2F%2Fopen.demonii.com%3A1337","udp%3A%2F%2Ftracker.coppersurfer.tk%3A6969","udp%3A%2F%2Fexodus.desync.com%3A6969"],"infoHash":"09066244e64e89d663addd07a8638d6c99ec04cd","infoHashBuffer":{"type":"Buffer","data":[9,6,98,68,230,78,137,214,99,173,221,7,168,99,141,108,153,236,4,205]},"announce":[],"urlList":[]}}